<?xml version="1.0" standalone="no"?>
<!DOCTYPE svg PUBLIC "-//W3C//DTD SVG 1.1//EN" "http://www.w3.org/Graphics/SVG/1.1/DTD/svg11.dtd" >
<svg xmlns="http://www.w3.org/2000/svg" xmlns:xlink="http://www.w3.org/1999/xlink" version="1.1">
<metadata></metadata>
<defs>
<font id="source_code_problack" horiz-adv-x="1228" >
<font-face units-per-em="2048" ascent="1536" descent="-512" />
<missing-glyph horiz-adv-x="500" />
<glyph horiz-adv-x="0" />
<glyph horiz-adv-x="682" />
<glyph unicode=" " />
<glyph unicode="!" d="M500 541l-49 528l-13 303h353l-13 -303l-49 -528h-229zM614 -25q-98 0 -161.5 64.5t-63.5 163.5q0 98 63.5 160.5t161.5 62.5q99 0 162.5 -62.5t63.5 -160.5t-64 -163t-162 -65z" />
<glyph unicode="&#x22;" d="M221 582l-78 495l-12 324h393l-12 -324l-78 -495h-213zM795 582l-78 495l-12 324h393l-13 -324l-77 -495h-213z" />
<glyph unicode="#" d="M623 0l45 369h-189l-45 -369h-201l46 369h-148v221h174l25 196h-158v222h186l39 323h197l-39 -323h193l38 323h197l-39 -323h162v-222h-188l-23 -196h170v-221h-197l-45 -369h-200zM694 590l25 196h-191l-22 -196h188z" />
<glyph unicode="$" d="M115 238l151 237q108 -64 193 -93.5t172 -29.5q114 0 114 62q0 28 -32 51t-82.5 42t-112.5 40t-123.5 52t-112 70.5t-82.5 102.5t-32 141q0 133 89.5 223.5t248.5 118.5v269h229v-264q190 -31 330 -175l-172 -200q-77 52 -140.5 75t-138.5 23q-110 0 -110 -65 q0 -23 32 -43t82.5 -37.5t112 -38.5t123.5 -52t112.5 -70.5t82.5 -101t32 -137.5q0 -131 -89.5 -227t-256.5 -127v-309h-229v299q-103 13 -209 55.5t-182 108.5z" />
<glyph unicode="%" d="M360 631q-134 0 -222.5 96t-88.5 252q0 157 88 250.5t223 93.5t223.5 -94t88.5 -250t-89 -252t-223 -96zM360 815q74 0 74 164q0 160 -74 160q-73 0 -73 -160q0 -164 73 -164zM203 53l-176 172l385 344l118 -110zM821 762l-119 110l328 406l176 -172zM868 -25 q-134 0 -222.5 96.5t-88.5 252.5q0 157 88 250.5t223 93.5t223.5 -94t88.5 -250t-89 -252.5t-223 -96.5zM868 160q74 0 74 164q0 159 -74 159q-73 0 -73 -159q0 -164 73 -164z" />
<glyph unicode="&#x26;" d="M471 -25q-107 0 -192.5 31.5t-138 85.5t-80 122.5t-27.5 145.5q0 83 28.5 153t70 116t101.5 90q-86 156 -86 276q0 150 95 255.5t250 105.5q159 0 251.5 -85.5t92.5 -230.5q0 -60 -18.5 -112.5t-57.5 -99t-73 -77.5t-89 -75q83 -96 201 -187q65 124 94 277h319 q-62 -246 -174 -436q94 -57 170 -72l-82 -283q-148 35 -284 121q-159 -121 -371 -121zM436 995q0 -54 29 -123q104 80 104 168q0 44 -16 65t-53 21q-28 0 -46 -34.5t-18 -96.5zM516 242q41 0 88 26q-117 102 -211 215q-28 -48 -28 -102q0 -62 40.5 -100.5t110.5 -38.5z" />
<glyph unicode="'" d="M508 582l-78 495l-12 324h393l-12 -324l-78 -495h-213z" />
<glyph unicode="(" d="M772 -369q-202 188 -313 424.5t-111 513.5t111 513.5t313 424.5l195 -151q-173 -180 -250.5 -365.5t-77.5 -421.5t77.5 -421t250.5 -365z" />
<glyph unicode=")" d="M457 -369l-195 152q173 180 250.5 365t77.5 421t-77.5 421.5t-250.5 365.5l195 151q202 -188 313 -424.5t111 -513.5t-111 -513.5t-313 -424.5z" />
<glyph unicode="*" d="M381 170l-150 102l191 314l-307 137l53 168l328 -80l28 356h181l28 -356l328 80l53 -168l-307 -137l190 -314l-149 -102l-234 279z" />
<glyph unicode="+" d="M487 184v369h-356v246h356v368h254v-368h357v-246h-357v-369h-254z" />
<glyph unicode="," d="M446 -446l-84 200q135 43 203.5 114.5t65.5 156.5h-17q-101 0 -173 62.5t-72 168.5q0 101 73.5 166t182.5 65q137 0 208.5 -100.5t71.5 -284.5q0 -203 -116 -343.5t-343 -204.5z" />
<glyph unicode="-" d="M131 553v246h967v-246h-967z" />
<glyph unicode="." d="M614 -25q-118 0 -192 77t-74 190q0 111 74.5 188.5t191.5 77.5q118 0 192.5 -77.5t74.5 -188.5q0 -113 -74.5 -190t-192.5 -77z" />
<glyph unicode="/" d="M131 -328l676 1782h291l-676 -1782h-291z" />
<glyph unicode="0" d="M614 -25q-234 0 -373 177t-139 503q0 325 138.5 496.5t373.5 171.5t373.5 -171.5t138.5 -496.5q0 -326 -139 -503t-373 -177zM614 246q201 0 201 409q0 117 -15.5 198t-44.5 123t-63 59.5t-78 17.5q-35 0 -63 -10t-54.5 -37t-44 -70.5t-28 -115t-10.5 -165.5 q0 -117 15.5 -199.5t44 -127t62.5 -63.5t78 -19zM614 492q-71 0 -117 45t-46 118t46 118.5t117 45.5t117.5 -45.5t46.5 -118.5t-46.5 -118t-117.5 -45z" />
<glyph unicode="1" d="M156 0v283h319v671h-266v217q214 40 360 127h258v-1015h279v-283h-950z" />
<glyph unicode="2" d="M106 0v201q103 84 166.5 137.5t141.5 123t124 119t88.5 104.5t61.5 102t19 90q0 86 -50 129t-139 43q-45 0 -91.5 -20t-76.5 -42.5t-74 -60.5l-186 188q109 110 218 159.5t259 49.5q211 0 342 -117t131 -309q0 -255 -430 -618q144 16 234 16h262v-295h-1000z" />
<glyph unicode="3" d="M565 -25q-163 0 -288 48.5t-203 136.5l159 221q66 -56 144.5 -89.5t150.5 -33.5q99 0 158 31.5t59 91.5q0 52 -28.5 84.5t-110 52t-221.5 19.5v245q320 0 320 148q0 58 -43 88.5t-121 30.5q-68 0 -127.5 -26t-130.5 -81l-177 213q211 168 451 168q228 0 364 -96.5 t136 -270.5q0 -186 -238 -280v-8q127 -36 203 -115t76 -197q0 -119 -75.5 -207t-195 -131t-262.5 -43z" />
<glyph unicode="4" d="M676 0v291h-608v246l501 761h435v-741h149v-266h-149v-291h-328zM399 557h277v148q0 43 12 307h-8q-25 -45 -77 -126.5t-68 -107.5z" />
<glyph unicode="5" d="M578 -25q-298 0 -492 185l156 221q148 -123 282 -123q104 0 162.5 42t58.5 126q0 80 -57 124t-147 44q-57 0 -96 -12.5t-105 -49.5l-152 99l33 667h819v-294h-516l-16 -189q70 21 143 21q90 0 169.5 -25t142 -73t99 -126.5t36.5 -177.5q0 -140 -73.5 -246.5 t-190.5 -159.5t-256 -53z" />
<glyph unicode="6" d="M647 -25q-81 0 -156 22t-145 72.5t-121.5 124t-82.5 185t-31 248.5q0 171 47 306.5t127.5 219t180 127t210.5 43.5q137 0 248 -46t186 -118l-184 -209q-40 37 -99.5 63.5t-117.5 26.5q-115 0 -191 -84.5t-86 -269.5q63 62 145 97.5t148 35.5q85 0 156.5 -24t126.5 -71.5 t86.5 -125.5t31.5 -180q0 -135 -67 -237.5t-174.5 -154t-237.5 -51.5zM639 238q72 0 120 42.5t48 137.5q0 155 -160 155q-111 0 -205 -110q24 -125 78.5 -175t118.5 -50z" />
<glyph unicode="7" d="M369 0q21 320 98.5 541t267.5 463h-614v294h989v-217q-81 -88 -139 -165t-99.5 -159.5t-67 -156t-42.5 -175t-25 -193t-16 -232.5h-352z" />
<glyph unicode="8" d="M610 -25q-225 0 -358 98t-133 259q0 106 61 179t170 128v8q-186 133 -186 307q0 169 127.5 269t331.5 100q196 0 315 -97.5t119 -262.5q0 -84 -51 -154.5t-132 -118.5v-8q240 -121 240 -342q0 -161 -133.5 -263t-370.5 -102zM696 774q74 80 74 164q0 67 -41 105t-115 38 q-63 0 -103 -31.5t-40 -95.5q0 -60 55 -99.5t170 -80.5zM618 217q76 0 122 32.5t46 102.5q0 26 -12.5 48.5t-31 39t-55 35t-69 32t-87.5 34.5q-14 5 -21 8q-88 -75 -88 -176q0 -73 56 -114.5t140 -41.5z" />
<glyph unicode="9" d="M578 725q110 0 204 111q-24 125 -78 175t-118 50q-72 0 -120 -42.5t-48 -137.5q0 -82 43.5 -119t116.5 -37zM549 -25q-137 0 -248 46t-186 118l184 209q40 -37 99.5 -63.5t117.5 -26.5q115 0 191 84.5t86 269.5q-63 -62 -145 -97.5t-148 -35.5q-85 0 -156.5 24t-127 72 t-87 126t-31.5 180t39 186.5t105 139.5t153 85.5t183 30.5q81 0 156 -22t145 -72t121.5 -124t82.5 -185t31 -248t-31 -252.5t-84.5 -196.5t-125.5 -137.5t-154 -83.5t-170 -27z" />
<glyph unicode=":" d="M614 610q-118 0 -192 77t-74 190q0 111 74.5 188.5t191.5 77.5q118 0 192.5 -77.5t74.5 -188.5q0 -113 -74.5 -190t-192.5 -77zM614 -25q-118 0 -192 77t-74 190q0 111 74.5 188.5t191.5 77.5q118 0 192.5 -77.5t74.5 -188.5q0 -113 -74.5 -190t-192.5 -77z" />
<glyph unicode=";" d="M614 610q-118 0 -192 77t-74 190q0 111 74.5 188.5t191.5 77.5q118 0 192.5 -77.5t74.5 -188.5q0 -113 -74.5 -190t-192.5 -77zM446 -446l-84 200q135 43 203.5 114.5t65.5 156.5h-17q-101 0 -173 62.5t-72 168.5q0 101 73.5 166t182.5 65q137 0 208.5 -100.5 t71.5 -284.5q0 -203 -116 -343.5t-343 -204.5z" />
<glyph unicode="&#x3c;" d="M1036 49l-803 512v238l803 512v-316l-516 -311v-8l516 -311v-316z" />
<glyph unicode="=" d="M131 799v245h967v-245h-967zM131 307v246h967v-246h-967z" />
<glyph unicode="&#x3e;" d="M193 49v316l516 311v8l-516 311v316l802 -512v-238z" />
<glyph unicode="?" d="M426 541q-11 74 12.5 137.5t65 106.5t85 80t75.5 74.5t32 72.5q0 52 -36 77t-87 25q-53 0 -94 -21t-94 -65l-192 176q78 90 182 141.5t223 51.5q91 0 168.5 -20t137.5 -60t94 -106.5t34 -153.5q0 -54 -17.5 -100t-45.5 -79.5t-61 -64t-65.5 -59t-59 -58.5t-40.5 -69.5 t-10 -85.5h-307zM586 -25q-98 0 -162 65t-64 163t63.5 160.5t162.5 62.5q98 0 161.5 -62.5t63.5 -160.5q0 -99 -63.5 -163.5t-161.5 -64.5z" />
<glyph unicode="@" d="M692 -303q-101 0 -194 30.5t-175 96.5t-142.5 161t-96 232.5t-35.5 302.5q0 207 49.5 365t136.5 253t196.5 142t238.5 47q118 0 207.5 -39t144 -108.5t81.5 -160.5t27 -200v-614h-184l-24 98h-9q-81 -123 -235 -123q-112 0 -186 87t-74 208q0 66 23.5 119t65.5 91t106 66 t137.5 46t167.5 30v33q0 108 -67.5 183t-188.5 75q-53 0 -104.5 -19t-101 -65t-86.5 -113.5t-60 -173t-23 -235.5q0 -152 36 -271.5t96 -190.5t133.5 -107.5t154.5 -36.5q84 0 140.5 18t123.5 56l98 -173q-99 -55 -185.5 -82.5t-191.5 -27.5zM758 406q59 0 123 53v159 q-119 -19 -164 -48t-45 -87q0 -36 22.5 -56.5t63.5 -20.5z" />
<glyph unicode="A" d="M510 647l-21 -92h238l-20 92q-4 20 -42 181t-55 241h-8q-69 -322 -92 -422zM0 0l401 1331h426l402 -1331h-373l-65 283h-365l-66 -283h-360z" />
<glyph unicode="B" d="M131 0v1331h475q88 0 159.5 -9t136.5 -32.5t109 -60.5t69.5 -95t25.5 -135q0 -94 -57.5 -175.5t-167.5 -110.5v-8q142 -28 212 -104.5t70 -207.5q0 -100 -40 -176.5t-111 -123t-163 -70t-202 -23.5h-516zM483 807h115q83 0 123.5 37.5t40.5 101.5q0 61 -38.5 88 t-125.5 27h-115v-254zM483 270h140q196 0 196 152q0 74 -46 106.5t-150 32.5h-140v-291z" />
<glyph unicode="C" d="M733 -25q-127 0 -239 43t-200.5 125.5t-140 214.5t-51.5 297q0 163 51 297t140 221.5t207.5 135t253.5 47.5q120 0 225 -48.5t184 -123.5l-192 -217q-99 86 -217 86q-126 0 -208.5 -104t-82.5 -281q0 -184 84.5 -286.5t222.5 -102.5q118 0 217 106l193 -213 q-167 -197 -447 -197z" />
<glyph unicode="D" d="M131 0v1331h383q146 0 262.5 -37.5t204.5 -115t135 -205.5t47 -301q0 -172 -47 -303t-132.5 -210.5t-198 -119t-250.5 -39.5h-404zM483 283h13q68 0 120.5 17.5t96 59.5t67 120.5t23.5 191.5q0 91 -16 158.5t-42.5 109t-67 66.5t-83.5 34t-98 9h-13v-766z" />
<glyph unicode="E" d="M172 0v1331h905v-295h-553v-209h471v-295h-471v-237h574v-295h-926z" />
<glyph unicode="F" d="M193 0v1331h911v-295h-559v-254h479v-295h-479v-487h-352z" />
<glyph unicode="G" d="M707 -25q-130 0 -242 43t-198 125.5t-135.5 214t-49.5 297.5q0 165 49 299t134.5 221t199.5 134t244 47q229 0 397 -172l-193 -217q-45 44 -91 65t-113 21q-113 0 -189 -104.5t-76 -280.5q0 -190 71 -289.5t212 -99.5q60 0 90 24v184h-166v287h479v-635 q-74 -68 -189 -116t-234 -48z" />
<glyph unicode="H" d="M119 0v1331h352v-495h287v495h352v-1331h-352v528h-287v-528h-352z" />
<glyph unicode="I" d="M135 0v295h303v741h-303v295h959v-295h-303v-741h303v-295h-959z" />
<glyph unicode="J" d="M557 -25q-124 0 -245 52t-208 168l199 219q119 -135 242 -135q91 0 134.5 46.5t43.5 166.5v544h-506v295h858v-868q0 -82 -17 -153t-55.5 -133.5t-97.5 -106.5t-147.5 -69.5t-200.5 -25.5z" />
<glyph unicode="K" d="M115 0v1331h356v-495h8l328 495h389l-393 -538l426 -793h-389l-244 512l-125 -172v-340h-356z" />
<glyph unicode="L" d="M197 0v1331h352v-1036h567v-295h-919z" />
<glyph unicode="M" d="M106 0v1331h359l108 -434l37 -172h8l37 172l109 434h358v-1331h-291v313q0 107 15.5 318t30.5 358h-7l-112 -395l-70 -242h-156l-73 242l-103 395h-8q15 -143 30 -356t15 -320v-313h-287z" />
<glyph unicode="N" d="M123 0v1331h356l223 -594l109 -299h8q-3 26 -18.5 145t-23 204t-7.5 159v385h336v-1331h-356l-224 596l-108 297h-8q4 -41 18.5 -151.5t22.5 -197t8 -159.5v-385h-336z" />
<glyph unicode="O" d="M614 -25q-250 0 -397 179t-147 518q0 330 147.5 507t396.5 177q250 0 397.5 -177t147.5 -507q0 -339 -147.5 -518t-397.5 -179zM614 279q88 0 136.5 98.5t48.5 294.5q0 187 -48.5 284t-136.5 97t-136 -96.5t-48 -284.5q0 -196 48 -294.5t136 -98.5z" />
<glyph unicode="P" d="M131 0v1331h500q113 0 205 -22.5t167.5 -72t117.5 -137.5t42 -210q0 -118 -43.5 -209.5t-118.5 -146.5t-168.5 -83t-201.5 -28h-148v-422h-352zM483 700h131q102 0 153.5 49t51.5 140q0 87 -51.5 125.5t-153.5 38.5h-131v-353z" />
<glyph unicode="Q" d="M614 262q185 0 185 410q0 187 -48.5 284t-136.5 97t-136 -96.5t-48 -284.5q0 -410 184 -410zM1004 -377q-197 0 -340 101.5t-211 273.5q-180 52 -281.5 223.5t-101.5 450.5q0 330 147.5 507t396.5 177q250 0 397.5 -177t147.5 -507q0 -261 -89.5 -429t-250.5 -231 q59 -110 225 -110q53 0 111 28l62 -258q-76 -49 -213 -49z" />
<glyph unicode="R" d="M119 0v1331h495q90 0 166 -12.5t145 -43.5t117 -79t76.5 -123t28.5 -172q0 -268 -215 -385l289 -516h-394l-229 446h-127v-446h-352zM471 725h119q104 0 158.5 45t54.5 131q0 83 -52 117.5t-161 34.5h-119v-328z" />
<glyph unicode="S" d="M606 -25q-135 0 -271 48.5t-245 142.5l201 242q170 -129 340 -129q75 0 111 21t36 56q0 14 -4 26.5t-8.5 21.5t-16.5 19t-20 16t-28.5 15.5t-32 14t-39.5 16t-43 17.5l-166 69q-125 46 -203 140t-78 231q0 174 142.5 294t365.5 120q123 0 242 -45t213 -133l-176 -222 q-78 51 -143.5 74t-155.5 23q-61 0 -96 -23t-35 -67q0 -39 41 -63.5t145 -62.5q15 -5 23 -8l153 -63q281 -104 281 -365q0 -85 -35.5 -161.5t-101.5 -135.5t-168.5 -94t-227.5 -35z" />
<glyph unicode="T" d="M438 0v1036h-383v295h1119v-295h-383v-1036h-353z" />
<glyph unicode="U" d="M618 -25q-253 0 -376 141.5t-123 399.5v815h352v-856q0 -93 33.5 -144.5t113.5 -51.5q152 0 152 196v856h340v-815q0 -259 -119.5 -400t-372.5 -141z" />
<glyph unicode="V" d="M401 0l-393 1331h373l139 -581q19 -72 49.5 -212t48.5 -210h9q20 77 51 218t47 204l135 581h361l-394 -1331h-426z" />
<glyph unicode="W" d="M170 0l-166 1331h361l16 -659v-344h8q9 65 34 185t32 159l73 323h205l68 -323q8 -48 31.5 -164t33.5 -180h8v344l17 659h336l-154 -1331h-364l-60 365q-29 178 -31 260h-6q-11 -140 -30 -260l-56 -365h-356z" />
<glyph unicode="X" d="M8 0l385 684l-362 647h393l106 -217q7 -14 101 -221h8q43 120 88 221l94 217h377l-362 -663l385 -668h-394l-122 238q-45 85 -103 221h-8q-41 -109 -94 -221l-115 -238h-377z" />
<glyph unicode="Y" d="M438 0v440l-422 891h377l111 -291q19 -55 55 -155t53 -148h9q21 60 59.5 162.5t52.5 140.5l111 291h368l-421 -891v-440h-353z" />
<glyph unicode="Z" d="M109 0v213l575 823h-520v295h956v-213l-575 -823h581v-295h-1017z" />
<glyph unicode="[" d="M389 -311v1761h623v-184h-357v-1393h357v-184h-623z" />
<glyph unicode="\" d="M807 -328l-676 1782h291l676 -1782h-291z" />
<glyph unicode="]" d="M217 -311v184h356v1393h-356v184h623v-1761h-623z" />
<glyph unicode="^" d="M156 553l319 819h279l319 -819h-287l-77 225l-91 279h-8l-90 -279l-78 -225h-286z" />
<glyph unicode="_" d="M123 -356v258h983v-258h-983z" />
<glyph unicode="`" d="M614 1143l-389 323l238 234l323 -385z" />
<glyph unicode="a" d="M442 -25q-153 0 -242 91.5t-89 224.5q0 175 151 265t496 108q-17 106 -197 106q-109 0 -295 -86l-123 229q247 136 488 136q227 0 353 -118t126 -362v-569h-287l-24 106h-8q-177 -131 -349 -131zM557 246q96 0 201 78v131q-119 -4 -191 -24t-96.5 -47t-24.5 -65 q0 -73 111 -73z" />
<glyph unicode="b" d="M707 -25q-144 0 -265 136h-8l-28 -111h-275v1425h352v-331l-12 -148h8q52 49 119.5 76t136.5 27q186 0 297 -142t111 -377q0 -128 -36.5 -235t-98 -176t-139.5 -106.5t-162 -37.5zM623 262q71 0 115 62t44 200q0 124 -37.5 181t-113.5 57q-80 0 -148 -74v-377 q57 -49 140 -49z" />
<glyph unicode="c" d="M700 -25q-163 0 -292 62.5t-205 185.5t-76 289q0 100 32 186.5t88 150t131.5 109t164.5 68.5t184 23q118 0 219.5 -36.5t167.5 -99.5l-160 -217q-104 70 -206 70q-117 0 -189 -69t-72 -185q0 -115 69.5 -184.5t178.5 -69.5q112 0 252 86l139 -221q-91 -74 -204.5 -111 t-221.5 -37z" />
<glyph unicode="d" d="M514 -25q-196 0 -312 144.5t-116 392.5q0 122 36.5 225t97 170t137 104.5t157.5 37.5q145 0 240 -103h8l-17 148v331h353v-1425h-287l-25 94h-8q-55 -54 -126 -86.5t-138 -32.5zM606 262q45 0 78 16.5t61 57.5v377q-54 49 -135 49q-71 0 -117.5 -60t-46.5 -186 q0 -254 160 -254z" />
<glyph unicode="e" d="M676 -25q-163 0 -292 62.5t-205.5 185.5t-76.5 289q0 122 45.5 225t120.5 170t171.5 104.5t199.5 37.5q118 0 212 -39t153.5 -106.5t90.5 -157t31 -193.5q0 -59 -14 -147h-657q23 -85 89.5 -124.5t180.5 -39.5q112 0 246 61l114 -209q-90 -57 -200 -88t-209 -31zM651 782 q-151 0 -194 -147h358q-21 147 -164 147z" />
<glyph unicode="f" d="M414 0v750h-262v262l262 12v4q0 88 27.5 163t83 133.5t149 92t215.5 33.5q141 0 315 -53l-65 -258q-105 37 -205 37q-86 0 -127 -34t-41 -114v-4h324v-274h-324v-750h-352z" />
<glyph unicode="g" d="M551 -422q-99 0 -180 14t-145 43.5t-100 79.5t-36 117q0 122 156 197v8q-103 67 -103 176q0 51 34 103t89 90v8q-62 39 -100.5 107.5t-38.5 154.5q0 92 37 165t100.5 117.5t144 67.5t171.5 23q94 0 174 -25h413v-254h-184q29 -52 29 -106q0 -88 -33 -154.5t-92 -106.5 t-136 -59.5t-171 -19.5q-60 0 -129 14q-19 -14 -26 -26t-7 -33q0 -34 37 -48t123 -14h174q426 0 426 -266q0 -167 -171 -270t-456 -103zM580 532q54 0 89.5 37t35.5 107q0 67 -35.5 103t-89.5 36t-88.5 -35.5t-34.5 -103.5q0 -70 34.5 -107t88.5 -37zM606 -205q104 0 171 26 t67 68q0 37 -38 49.5t-122 12.5h-102q-104 0 -156 12q-51 -36 -51 -74q0 -94 231 -94z" />
<glyph unicode="h" d="M131 0v1425h352v-331l-20 -181h8q136 136 324 136q164 0 243.5 -110t79.5 -308v-631h-352v586q0 88 -26.5 126t-92.5 38q-47 0 -84 -19t-80 -59v-672h-352z" />
<glyph unicode="i" d="M541 0v750h-389v274h741v-1024h-352zM705 1163q-99 0 -162.5 56.5t-63.5 148.5t63.5 150.5t162.5 58.5t162 -58.5t63 -150.5t-63 -148.5t-162 -56.5z" />
<glyph unicode="j" d="M399 -385q-169 0 -323 70l100 249q105 -45 199 -45q93 0 129.5 43.5t36.5 149.5v668h-389v274h741v-930q0 -79 -14 -146t-49 -130t-89.5 -107t-141.5 -70t-200 -26zM705 1163q-99 0 -162.5 56.5t-63.5 148.5t63.5 150.5t162.5 58.5t162 -58.5t63 -150.5t-63 -148.5 t-162 -56.5z" />
<glyph unicode="k" d="M131 0v1425h352v-766h9l311 365h381l-381 -422l405 -602h-381l-225 381l-119 -131v-250h-352z" />
<glyph unicode="l" d="M801 -25q-199 0 -305.5 121t-106.5 326v729h-278v274h630v-1015q0 -81 45 -116.5t109 -35.5q61 0 147 29l76 -258q-68 -20 -104.5 -29.5t-93 -17t-119.5 -7.5z" />
<glyph unicode="m" d="M53 0v1024h262l25 -123h8q63 148 217 148q64 0 109.5 -42.5t62.5 -121.5q24 70 81 117t140 47q109 0 169.5 -90t60.5 -246v-713h-332v688q0 33 -7.5 47.5t-27.5 14.5q-41 0 -67 -78v-672h-267v688q0 62 -41 62q-35 0 -61 -78v-672h-332z" />
<glyph unicode="n" d="M131 0v1024h287l24 -123h9q156 148 342 148q165 0 245 -110t80 -308v-631h-352v586q0 88 -26.5 126t-92.5 38q-47 0 -84 -19t-80 -59v-672h-352z" />
<glyph unicode="o" d="M614 -25q-102 0 -196.5 37t-168.5 103.5t-118.5 170t-44.5 226.5t44.5 226.5t118.5 170t168.5 103.5t196.5 37t196.5 -37t169 -103.5t119 -170t44.5 -226.5t-44.5 -226.5t-119 -170t-169 -103.5t-196.5 -37zM614 258q168 0 168 254t-168 254t-168 -254t168 -254z" />
<glyph unicode="p" d="M131 -360v1384h287l24 -94h9q133 119 286 119q186 0 296 -142t110 -379q0 -128 -36.5 -234.5t-98 -175t-139.5 -106t-162 -37.5q-129 0 -232 103h-8l16 -156v-282h-352zM623 262q71 0 115 62t44 200q0 124 -37.5 181t-113.5 57q-80 0 -148 -74v-377q57 -49 140 -49z" />
<glyph unicode="q" d="M745 -360v282l17 156h-8q-46 -46 -112 -74.5t-130 -28.5q-194 0 -310 144.5t-116 392.5q0 122 36.5 225t97 170t137 104.5t157.5 37.5q84 0 148 -30t124 -97h9l28 102h275v-1384h-353zM606 262q45 0 78 16.5t61 57.5v377q-54 49 -135 49q-71 0 -117.5 -60t-46.5 -186 q0 -254 160 -254z" />
<glyph unicode="r" d="M213 0v1024h289l26 -217h9q71 122 175 182t224 60q65 0 104.5 -9.5t89.5 -31.5l-69 -295q-95 28 -178 28q-96 0 -180 -56t-138 -177v-508h-352z" />
<glyph unicode="s" d="M594 -25q-127 0 -261.5 44t-238.5 112l148 217q195 -115 401 -115q127 0 127 62q0 32 -40 49q-31 12 -185 45q-206 44 -295.5 124t-89.5 204q0 151 132.5 241.5t354.5 90.5q224 0 455 -144l-156 -209q-165 95 -332 95q-50 0 -78 -15t-28 -43q0 -27 29.5 -39.5 t119.5 -32.5q40 -9 64 -14q225 -51 311 -126t86 -206q0 -150 -137.5 -245t-386.5 -95z" />
<glyph unicode="t" d="M791 -25q-459 0 -459 459v316h-246v262l262 12l45 307h291v-307h406v-274h-406v-310q0 -105 48.5 -147.5t150.5 -42.5q85 0 186 33l61 -254q-194 -54 -339 -54z" />
<glyph unicode="u" d="M438 -25q-166 0 -244.5 109.5t-78.5 308.5v631h352v-586q0 -89 25 -126.5t92 -37.5q47 0 81 19t72 72v659h353v-1024h-287l-25 135h-8q-140 -160 -332 -160z" />
<glyph unicode="v" d="M418 0l-369 1024h352l134 -446q14 -45 27.5 -98t29.5 -118t26 -104h9q9 36 26 103.5t30.5 119.5t27.5 97l133 446h336l-357 -1024h-405z" />
<glyph unicode="w" d="M152 0l-148 1024h340l41 -430q3 -32 12.5 -141t16.5 -170h6q18 187 43 311l41 266h237l45 -266q28 -156 48 -311h8q7 62 13.5 172.5t8.5 138.5l33 430h328l-135 -1024h-406l-33 274q-20 156 -33 304h-8q-18 -211 -28 -304l-33 -274h-397z" />
<glyph unicode="x" d="M55 0l342 532l-321 492h377l84 -143q16 -32 52 -92.5t48 -83.5h8q12 28 37 88t37 88l67 143h367l-324 -532l342 -492h-376l-95 143q-17 29 -54.5 88.5t-55.5 87.5h-8q-7 -16 -37.5 -79t-46.5 -97l-76 -143h-367z" />
<glyph unicode="y" d="M301 -385q-86 0 -164 20l62 267q44 -13 73 -13q145 0 191 103l16 45l-430 987h348l144 -393q39 -109 92 -312h8q26 107 88 312l123 393h332l-385 -1008q-43 -108 -86.5 -180t-102.5 -123.5t-134 -74.5t-175 -23z" />
<glyph unicode="z" d="M143 0v188l471 562h-413v274h901v-188l-475 -562h487v-274h-971z" />
<glyph unicode="{" d="M842 -311q-204 0 -293.5 67t-89.5 232q0 74 10 172t10 159t-63.5 103t-210.5 45v205q147 3 210.5 44.5t63.5 102.5t-10 160t-10 172q0 165 89.5 232t293.5 67h170v-184h-76q-118 0 -154.5 -24t-36.5 -103q0 -50 4.5 -154.5t4.5 -165.5q0 -120 -48.5 -173.5t-164.5 -72.5 v-8q116 -19 164.5 -72.5t48.5 -173.5q0 -61 -4.5 -165t-4.5 -154q0 -79 36.5 -103t154.5 -24h76v-184h-170z" />
<glyph unicode="|" d="M459 -512v2048h311v-2048h-311z" />
<glyph unicode="}" d="M219 -311v184h76q116 0 152 24t36 103q0 50 -3 154t-3 165q0 120 48.5 173.5t164.5 72.5v8q-116 19 -164.5 72.5t-48.5 173.5q0 61 3 165.5t3 154.5q0 79 -36 103t-152 24h-76v184h170q204 0 293.5 -67t89.5 -232q0 -73 -11 -172t-11 -160t64 -102.5t212 -44.5v-205 q-148 -3 -212 -45t-64 -103t11 -159t11 -172q0 -165 -89.5 -232t-293.5 -67h-170z" />
<glyph unicode="~" d="M786 479q-58 0 -111 23t-86 51t-74 51t-77 23q-40 0 -77.5 -43.5t-65.5 -120.5l-209 98q132 311 356 311q48 0 91 -15t75 -37t61 -43.5t60.5 -36.5t61.5 -15q41 0 78 43t65 121l209 -98q-133 -312 -357 -312z" />
<glyph unicode="&#xa0;" />
<glyph unicode="&#xa1;" d="M438 -348l13 303l49 528h229l49 -528l13 -303h-353zM614 598q-98 0 -161.5 62.5t-63.5 160.5q0 99 63.5 163.5t161.5 64.5t162 -65t64 -163t-63.5 -160.5t-162.5 -62.5z" />
<glyph unicode="&#xa2;" d="M524 627q0 -156 111 -219v438q-111 -60 -111 -219zM635 -90v186q-209 30 -330 168.5t-121 362.5q0 212 124 350t327 174v192h188v-182q153 -15 250 -112l-160 -218q-48 39 -90 48v-502q61 13 123 61l139 -221q-111 -97 -262 -121v-186h-188z" />
<glyph unicode="&#xa3;" d="M129 0v217q104 39 170 116t66 179q0 18 -3 33h-223v200l158 13q-29 78 -29 127q0 199 135.5 318.5t348.5 119.5q123 0 217.5 -42.5t171.5 -129.5l-189 -188q-74 77 -166 77q-184 0 -184 -176q0 -47 16 -106h328v-213h-278q2 -12 2 -37q0 -59 -21.5 -105.5t-73.5 -99.5v-8 h566v-295h-1012z" />
<glyph unicode="&#xa4;" d="M229 115l-174 174l164 164q-67 95 -67 223q0 125 65 219l-162 164l174 174l185 -184q96 41 200 41q105 0 201 -41l184 184l175 -174l-164 -164q67 -92 67 -219q0 -125 -69 -223l166 -164l-175 -174l-186 186q-91 -39 -199 -39q-107 0 -198 39zM614 504q66 0 109 47 t43 125t-43 125t-109 47t-108.5 -47t-42.5 -125t42.5 -125t108.5 -47z" />
<glyph unicode="&#xa5;" d="M438 0v291h-336v164h336v102h-336v164h260l-315 577h361l100 -241q15 -37 50.5 -127.5t55.5 -138.5h9q17 44 52.5 133t53.5 133l100 241h353l-316 -577h260v-164h-335v-102h335v-164h-335v-291h-353z" />
<glyph unicode="&#xa6;" d="M459 -512v901h311v-901h-311zM459 635v901h311v-901h-311z" />
<glyph unicode="&#xa7;" d="M557 -188q-122 0 -234.5 46.5t-179.5 137.5l201 176q96 -102 213 -102q102 0 102 65q0 23 -22.5 44t-60 37.5t-85 38t-96.5 43.5t-96.5 56t-85 74t-60 98.5t-22.5 128.5q0 71 42.5 142t115.5 118q-56 72 -56 170q0 152 103 242t282 90q214 0 390 -139l-160 -217 q-49 43 -106 70.5t-103 27.5t-68 -14t-22 -47q0 -23 30.5 -45t78.5 -43.5t106.5 -46.5t117.5 -60t107 -77t78.5 -105.5t30.5 -138.5q0 -170 -166 -277q43 -65 43 -153q0 -151 -107.5 -245.5t-310.5 -94.5zM426 680q0 -31 18 -57t54.5 -48t71.5 -38.5t91 -41t91 -42.5 q51 36 51 100q0 27 -14 50.5t-35 40.5t-56.5 35.5t-66 31.5t-77 32.5t-77.5 34.5q-51 -39 -51 -98z" />
<glyph unicode="&#xa8;" d="M377 1155q-81 0 -132.5 52.5t-51.5 131.5t51.5 132t132.5 53t132.5 -53t51.5 -132t-51.5 -131.5t-132.5 -52.5zM852 1155q-81 0 -132.5 52.5t-51.5 131.5t51.5 132t132.5 53t132.5 -53t51.5 -132t-51.5 -131.5t-132.5 -52.5z" />
<glyph unicode="&#xa9;" d="M614 -16q-117 0 -222.5 47.5t-186.5 134t-128.5 217t-47.5 285.5t47.5 284.5t128.5 213.5t186.5 130.5t222.5 46.5q93 0 180 -29t160.5 -86.5t128.5 -137.5t86 -188.5t31 -233.5q0 -155 -48 -285.5t-128.5 -217t-186.5 -134t-223 -47.5zM614 123q197 0 318 149.5 t121 395.5q0 245 -120.5 390.5t-318.5 145.5t-318 -145.5t-120 -390.5q0 -246 120.5 -395.5t317.5 -149.5zM643 262q-162 0 -263 109.5t-101 292.5q0 88 30 163.5t79.5 126t115 79t135.5 28.5q131 0 238 -103l-129 -143q-42 45 -84 45q-66 0 -102 -56t-36 -140 q0 -93 33.5 -147t91.5 -54q31 0 52.5 9.5t54.5 31.5l110 -160q-110 -82 -225 -82z" />
<glyph unicode="&#xaa;" d="M512 737q-103 0 -166 61.5t-63 147.5q0 109 104.5 173t325.5 73q-13 65 -125 65q-96 0 -199 -57l-86 160q161 90 336 90q147 0 231 -79t84 -241v-376h-196l-17 69h-6q-96 -86 -223 -86zM582 918q70 0 131 47v92q-197 -11 -197 -86q0 -53 66 -53z" />
<glyph unicode="&#xab;" d="M418 29l-365 311v352l365 312l147 -132l-262 -356l262 -356zM991 29l-364 311v352l364 312l148 -132l-262 -356l262 -356z" />
<glyph unicode="&#xac;" d="M844 184v369h-713v246h967v-615h-254z" />
<glyph unicode="&#xad;" d="M131 553v246h967v-246h-967z" />
<glyph unicode="&#xae;" d="M612 631q-174 0 -293.5 119t-119.5 299t119.5 298.5t293.5 118.5t294 -118.5t120 -298.5t-120 -299t-294 -119zM612 741q130 0 210.5 84t80.5 224t-80.5 223.5t-210.5 83.5t-210 -83.5t-80 -223.5t80 -224t210 -84zM440 852v397h193q76 0 122 -34.5t46 -100.5 q0 -74 -70 -110l82 -152h-135l-57 115h-50v-115h-131zM571 1055h37q26 0 40 15t14 36t-15 34t-39 13h-37v-98z" />
<glyph unicode="&#xaf;" d="M299 1204v221h631v-221h-631z" />
<glyph unicode="&#xb0;" d="M616 791q-132 0 -221.5 87.5t-89.5 219.5t89.5 219.5t221.5 87.5q133 0 222.5 -87.5t89.5 -219.5t-89.5 -219.5t-222.5 -87.5zM616 954q59 0 95.5 40t36.5 104t-36.5 103.5t-95.5 39.5t-95 -39.5t-36 -103.5t36 -104t95 -40z" />
<glyph unicode="&#xb1;" d="M487 348v246h-356v246h356v327h254v-327h357v-246h-357v-246h-254zM131 0v246h967v-246h-967z" />
<glyph unicode="&#xb2;" d="M311 754l-20 135q190 130 285.5 217.5t95.5 150.5q0 53 -32.5 82t-90.5 29q-87 0 -156 -90l-143 131q132 168 340 168q149 0 238.5 -73t89.5 -201q0 -85 -55.5 -163t-166.5 -173h246v-213h-631z" />
<glyph unicode="&#xb3;" d="M610 729q-246 0 -356 164l152 119q37 -50 78.5 -70t97.5 -20q52 0 85 20.5t33 56.5q0 91 -188 91v143q160 0 160 82q0 33 -28 51t-75 18q-80 0 -139 -73l-143 127q71 76 146.5 107.5t180.5 31.5q127 0 217.5 -62t90.5 -163q0 -62 -30 -104.5t-97 -76.5q74 -25 114.5 -75 t40.5 -117q0 -108 -101.5 -179t-238.5 -71z" />
<glyph unicode="&#xb4;" d="M614 1143l-172 172l324 385l238 -234z" />
<glyph unicode="&#xb5;" d="M115 -410v1434h352v-586q0 -93 27.5 -128.5t83.5 -35.5q51 0 88.5 32t70.5 100v618h357q-25 -469 -25 -676q0 -90 78 -90q21 0 37 4l41 -258q-67 -29 -172 -29q-207 0 -275 181h-8q-34 -80 -90 -124t-123 -44q-79 0 -111 28q7 -263 25 -426h-356z" />
<glyph unicode="&#xb6;" d="M567 381q-99 0 -186.5 32t-155.5 92t-107.5 154t-39.5 209q0 103 26 183t71 132t108.5 86t133.5 48t152 14h84v-950h-86zM758 -164v1495h352v-1495h-352z" />
<glyph unicode="&#xb7;" d="M614 463q-118 0 -192 76.5t-74 189.5q0 111 74.5 188.5t191.5 77.5q118 0 192.5 -77.5t74.5 -188.5q0 -112 -74.5 -189t-192.5 -77z" />
<glyph unicode="&#xb8;" d="M393 -500l-24 135q117 6 160.5 24.5t43.5 61.5q0 31 -33 51t-122 31l110 222h201l-65 -148q81 -19 120 -56t39 -100q0 -208 -430 -221z" />
<glyph unicode="&#xb9;" d="M332 754v213h246v340h-226v155q110 16 167 33.5t116 56.5h201v-585h208v-213h-712z" />
<glyph unicode="&#xba;" d="M614 737q-143 0 -246.5 97t-103.5 258q0 162 103.5 260t246.5 98q144 0 247.5 -98t103.5 -260q0 -107 -50 -189.5t-129.5 -124t-171.5 -41.5zM614 930q55 0 78 41.5t23 120.5q0 80 -22.5 120.5t-78.5 40.5q-54 0 -77 -40.5t-23 -120.5q0 -79 23 -120.5t77 -41.5z" />
<glyph unicode="&#xbb;" d="M238 29l-148 131l262 356l-262 356l148 132l364 -312v-352zM811 29l-147 131l262 356l-262 356l147 132l365 -312v-352z" />
<glyph unicode="&#xbc;" d="M262 655v420h-166v150q79 9 123 24t100 49h197v-643h-254zM201 53l-176 172l385 344l118 -110zM819 762l-119 110l328 406l176 -172zM901 0v115h-326v121l183 432l180 -66l-143 -334h106v174h221v-174h107v-153h-107v-115h-221z" />
<glyph unicode="&#xbd;" d="M262 655v420h-166v150q79 9 123 24t100 49h197v-643h-254zM201 53l-176 172l385 344l118 -110zM819 762l-119 110l328 406l176 -172zM635 0v129q120 71 204.5 146.5t84.5 119.5q0 33 -20.5 52.5t-57.5 19.5q-50 0 -101 -66l-143 131q136 136 285 136q127 0 202.5 -61 t75.5 -165q0 -108 -135 -237h156v-205h-551z" />
<glyph unicode="&#xbe;" d="M324 631q-52 0 -89 3.5t-93 21t-105 51.5l92 155q88 -47 162 -47q29 0 49 12t20 33q0 60 -131 60v127q54 0 80.5 10t26.5 41q0 19 -17.5 30t-48.5 11q-11 0 -23 -2t-21 -4.5t-22.5 -8.5t-20 -9t-22 -11t-20.5 -10l-96 147q115 82 285 82q105 0 178.5 -52t73.5 -132 q0 -57 -24 -90t-85 -54q72 -21 102.5 -59t30.5 -96q0 -88 -83.5 -148.5t-198.5 -60.5zM201 53l-176 172l385 344l118 -110zM819 762l-119 110l328 406l176 -172zM901 0v115h-326v121l183 432l180 -66l-143 -334h106v174h221v-174h107v-153h-107v-115h-221z" />
<glyph unicode="&#xbf;" d="M631 -373q-91 0 -168.5 20t-137.5 60t-94 106.5t-34 153.5q0 54 17.5 100t45.5 79.5t61 64t65.5 59t59 58.5t40.5 69.5t10 85.5h307q11 -74 -12.5 -137.5t-65.5 -106.5t-85.5 -80t-75.5 -74.5t-32 -72.5q0 -52 36 -77t87 -25q53 0 95 21t94 65l192 -176 q-78 -90 -182 -141.5t-223 -51.5zM643 598q-98 0 -161.5 62.5t-63.5 160.5q0 99 63.5 163.5t161.5 64.5t161.5 -64.5t63.5 -163.5q0 -98 -63.5 -160.5t-161.5 -62.5z" />
<glyph unicode="&#xc0;" d="M510 647l-21 -92h238l-20 92q-4 20 -42 181t-55 241h-8q-69 -322 -92 -422zM0 0l401 1331h426l402 -1331h-373l-65 283h-365l-66 -283h-360zM696 1380l-401 246l184 225l373 -295z" />
<glyph unicode="&#xc1;" d="M510 647l-21 -92h238l-20 92q-4 20 -42 181t-55 241h-8q-69 -322 -92 -422zM0 0l401 1331h426l402 -1331h-373l-65 283h-365l-66 -283h-360zM532 1380l-155 176l373 295l184 -225z" />
<glyph unicode="&#xc2;" d="M510 647l-21 -92h238l-20 92q-4 20 -42 181t-55 241h-8q-69 -322 -92 -422zM0 0l401 1331h426l402 -1331h-373l-65 283h-365l-66 -283h-360zM401 1393l-151 90l172 225h385l172 -225l-152 -90l-209 163h-8z" />
<glyph unicode="&#xc3;" d="M510 647l-21 -92h238l-20 92q-4 20 -42 181t-55 241h-8q-69 -322 -92 -422zM0 0l401 1331h426l402 -1331h-373l-65 283h-365l-66 -283h-360zM758 1405q-49 0 -95 16.5t-75 36.5t-58 36.5t-47 16.5q-27 0 -43 -18.5t-22 -67.5l-225 17q9 161 83.5 236t194.5 75 q49 0 95 -16.5t74.5 -36.5t57.5 -36.5t47 -16.5q27 0 43.5 18.5t22.5 67.5l225 -17q-9 -161 -83.5 -236t-194.5 -75z" />
<glyph unicode="&#xc4;" d="M510 647l-21 -92h238l-20 92q-4 20 -42 181t-55 241h-8q-69 -322 -92 -422zM0 0l401 1331h426l402 -1331h-373l-65 283h-365l-66 -283h-360zM373 1421q-73 0 -120.5 48.5t-47.5 119.5q0 72 47.5 120t120.5 48t120.5 -48t47.5 -120q0 -71 -47.5 -119.5t-120.5 -48.5z M856 1421q-73 0 -120.5 48.5t-47.5 119.5q0 72 47.5 120t120.5 48t120.5 -48t47.5 -120q0 -71 -47.5 -119.5t-120.5 -48.5z" />
<glyph unicode="&#xc5;" d="M510 647l-21 -92h238l-20 92q-4 20 -42 181t-55 241h-8q-69 -322 -92 -422zM0 0l401 1331h426l402 -1331h-373l-65 283h-365l-66 -283h-360zM614 1425q-111 0 -178 57t-67 152t67 152t178 57t178.5 -57t67.5 -152t-67.5 -152t-178.5 -57zM614 1552q33 0 55.5 23t22.5 59 t-22.5 59t-55.5 23t-55 -23t-22 -59t22 -59t55 -23z" />
<glyph unicode="&#xc6;" d="M541 713l-45 -170h137v526h-6q-16 -72 -46.5 -194.5t-39.5 -161.5zM-8 0l409 1331h803v-295h-262v-205h219v-294h-219v-242h279v-295h-588v270h-209l-72 -270h-360z" />
<glyph unicode="&#xc7;" d="M475 -500l-24 135q117 6 160.5 24.5t43.5 61.5q0 31 -33 51t-122 31l92 187q-103 21 -190.5 73t-155.5 133.5t-106 199t-38 259.5q0 163 51 297t140 221.5t207.5 135t253.5 47.5q120 0 225 -48.5t184 -123.5l-192 -217q-99 86 -217 86q-126 0 -208.5 -104t-82.5 -281 q0 -184 84.5 -286.5t222.5 -102.5q118 0 217 106l193 -213q-148 -176 -389 -195l-46 -100q82 -19 121 -56t39 -100q0 -208 -430 -221z" />
<glyph unicode="&#xc8;" d="M172 0v1331h905v-295h-553v-209h471v-295h-471v-237h574v-295h-926zM737 1380l-401 246l184 225l373 -295z" />
<glyph unicode="&#xc9;" d="M172 0v1331h905v-295h-553v-209h471v-295h-471v-237h574v-295h-926zM573 1380l-155 176l373 295l184 -225z" />
<glyph unicode="&#xca;" d="M172 0v1331h905v-295h-553v-209h471v-295h-471v-237h574v-295h-926zM442 1393l-151 90l172 225h385l172 -225l-152 -90l-209 163h-8z" />
<glyph unicode="&#xcb;" d="M172 0v1331h905v-295h-553v-209h471v-295h-471v-237h574v-295h-926zM414 1421q-73 0 -120.5 48.5t-47.5 119.5q0 72 47.5 120t120.5 48t120.5 -48t47.5 -120q0 -71 -47.5 -119.5t-120.5 -48.5zM897 1421q-73 0 -120.5 48.5t-47.5 119.5q0 72 47.5 120t120.5 48t120.5 -48 t47.5 -120q0 -71 -47.5 -119.5t-120.5 -48.5z" />
<glyph unicode="&#xcc;" d="M135 0v295h303v741h-303v295h959v-295h-303v-741h303v-295h-959zM696 1380l-401 246l184 225l373 -295z" />
<glyph unicode="&#xcd;" d="M135 0v295h303v741h-303v295h959v-295h-303v-741h303v-295h-959zM532 1380l-155 176l373 295l184 -225z" />
<glyph unicode="&#xce;" d="M135 0v295h303v741h-303v295h959v-295h-303v-741h303v-295h-959zM401 1393l-151 90l172 225h385l172 -225l-152 -90l-209 163h-8z" />
<glyph unicode="&#xcf;" d="M135 0v295h303v741h-303v295h959v-295h-303v-741h303v-295h-959zM373 1421q-73 0 -120.5 48.5t-47.5 119.5q0 72 47.5 120t120.5 48t120.5 -48t47.5 -120q0 -71 -47.5 -119.5t-120.5 -48.5zM856 1421q-73 0 -120.5 48.5t-47.5 119.5q0 72 47.5 120t120.5 48t120.5 -48 t47.5 -120q0 -71 -47.5 -119.5t-120.5 -48.5z" />
<glyph unicode="&#xd0;" d="M131 0v598h-139v152l139 12v569h385q145 0 261 -37.5t203.5 -115t135 -206t47.5 -300.5t-47.5 -303t-132.5 -210.5t-197.5 -119t-248.5 -39.5h-406zM483 283h13q68 0 120 17.5t96 59.5t67.5 120.5t23.5 191.5q0 91 -16 158.5t-43 108.5t-67.5 66.5t-83.5 34.5t-97 9h-13 v-287h193v-164h-193v-315z" />
<glyph unicode="&#xd1;" d="M123 0v1331h356l223 -594l109 -299h8q-3 26 -18.5 145t-23 204t-7.5 159v385h336v-1331h-356l-224 596l-108 297h-8q4 -41 18.5 -151.5t22.5 -197t8 -159.5v-385h-336zM778 1405q-49 0 -95 16.5t-74.5 36.5t-57.5 36.5t-47 16.5q-27 0 -43.5 -18.5t-22.5 -67.5l-225 17 q9 160 84 235.5t195 75.5q49 0 95 -16.5t74.5 -36.5t57.5 -36.5t47 -16.5q27 0 43 18.5t22 67.5l226 -17q-9 -160 -84 -235.5t-195 -75.5z" />
<glyph unicode="&#xd2;" d="M614 -25q-250 0 -397 179t-147 518q0 330 147.5 507t396.5 177q250 0 397.5 -177t147.5 -507q0 -339 -147.5 -518t-397.5 -179zM614 279q88 0 136.5 98.5t48.5 294.5q0 187 -48.5 284t-136.5 97t-136 -96.5t-48 -284.5q0 -196 48 -294.5t136 -98.5zM696 1380l-401 246 l184 225l373 -295z" />
<glyph unicode="&#xd3;" d="M614 -25q-250 0 -397 179t-147 518q0 330 147.5 507t396.5 177q250 0 397.5 -177t147.5 -507q0 -339 -147.5 -518t-397.5 -179zM614 279q88 0 136.5 98.5t48.5 294.5q0 187 -48.5 284t-136.5 97t-136 -96.5t-48 -284.5q0 -196 48 -294.5t136 -98.5zM532 1380l-155 176 l373 295l184 -225z" />
<glyph unicode="&#xd4;" d="M614 -25q-250 0 -397 179t-147 518q0 330 147.5 507t396.5 177q250 0 397.5 -177t147.5 -507q0 -339 -147.5 -518t-397.5 -179zM614 279q88 0 136.5 98.5t48.5 294.5q0 187 -48.5 284t-136.5 97t-136 -96.5t-48 -284.5q0 -196 48 -294.5t136 -98.5zM401 1393l-151 90 l172 225h385l172 -225l-152 -90l-209 163h-8z" />
<glyph unicode="&#xd5;" d="M614 -25q-250 0 -397 179t-147 518q0 330 147.5 507t396.5 177q250 0 397.5 -177t147.5 -507q0 -339 -147.5 -518t-397.5 -179zM614 279q88 0 136.5 98.5t48.5 294.5q0 187 -48.5 284t-136.5 97t-136 -96.5t-48 -284.5q0 -196 48 -294.5t136 -98.5zM758 1405 q-49 0 -95 16.5t-75 36.5t-58 36.5t-47 16.5q-27 0 -43 -18.5t-22 -67.5l-225 17q9 161 83.5 236t194.5 75q49 0 95 -16.5t74.5 -36.5t57.5 -36.5t47 -16.5q27 0 43.5 18.5t22.5 67.5l225 -17q-9 -161 -83.5 -236t-194.5 -75z" />
<glyph unicode="&#xd6;" d="M614 -25q-250 0 -397 179t-147 518q0 330 147.5 507t396.5 177q250 0 397.5 -177t147.5 -507q0 -339 -147.5 -518t-397.5 -179zM614 279q88 0 136.5 98.5t48.5 294.5q0 187 -48.5 284t-136.5 97t-136 -96.5t-48 -284.5q0 -196 48 -294.5t136 -98.5zM373 1421 q-73 0 -120.5 48.5t-47.5 119.5q0 72 47.5 120t120.5 48t120.5 -48t47.5 -120q0 -71 -47.5 -119.5t-120.5 -48.5zM856 1421q-73 0 -120.5 48.5t-47.5 119.5q0 72 47.5 120t120.5 48t120.5 -48t47.5 -120q0 -71 -47.5 -119.5t-120.5 -48.5z" />
<glyph unicode="&#xd7;" d="M332 217l-174 174l282 283l-282 282l174 174l282 -282l283 282l174 -174l-283 -282l283 -283l-174 -174l-283 283z" />
<glyph unicode="&#xd8;" d="M614 -25q-170 0 -295 84l-110 -153l-184 119l143 202q-98 173 -98 445q0 330 147.5 507t396.5 177q169 0 297 -84l109 153l184 -118l-143 -201q98 -173 98 -434q0 -339 -147.5 -518t-397.5 -179zM430 672q0 -51 2 -74l287 406q-40 49 -105 49q-88 0 -136 -96.5 t-48 -284.5zM614 279q88 0 136.5 98.5t48.5 294.5q0 43 -2 61l-287 -405q43 -49 104 -49z" />
<glyph unicode="&#xd9;" d="M618 -25q-253 0 -376 141.5t-123 399.5v815h352v-856q0 -93 33.5 -144.5t113.5 -51.5q152 0 152 196v856h340v-815q0 -259 -119.5 -400t-372.5 -141zM696 1380l-401 246l184 225l373 -295z" />
<glyph unicode="&#xda;" d="M618 -25q-253 0 -376 141.5t-123 399.5v815h352v-856q0 -93 33.5 -144.5t113.5 -51.5q152 0 152 196v856h340v-815q0 -259 -119.5 -400t-372.5 -141zM532 1380l-155 176l373 295l184 -225z" />
<glyph unicode="&#xdb;" d="M618 -25q-253 0 -376 141.5t-123 399.5v815h352v-856q0 -93 33.5 -144.5t113.5 -51.5q152 0 152 196v856h340v-815q0 -259 -119.5 -400t-372.5 -141zM401 1393l-151 90l172 225h385l172 -225l-152 -90l-209 163h-8z" />
<glyph unicode="&#xdc;" d="M618 -25q-253 0 -376 141.5t-123 399.5v815h352v-856q0 -93 33.5 -144.5t113.5 -51.5q152 0 152 196v856h340v-815q0 -259 -119.5 -400t-372.5 -141zM373 1421q-73 0 -120.5 48.5t-47.5 119.5q0 72 47.5 120t120.5 48t120.5 -48t47.5 -120q0 -71 -47.5 -119.5 t-120.5 -48.5zM856 1421q-73 0 -120.5 48.5t-47.5 119.5q0 72 47.5 120t120.5 48t120.5 -48t47.5 -120q0 -71 -47.5 -119.5t-120.5 -48.5z" />
<glyph unicode="&#xdd;" d="M438 0v440l-422 891h377l111 -291q19 -55 55 -155t53 -148h9q21 60 59.5 162.5t52.5 140.5l111 291h368l-421 -891v-440h-353zM532 1380l-155 176l373 295l184 -225z" />
<glyph unicode="&#xde;" d="M127 0v1331h352v-192h164q90 0 166 -13.5t145 -46t117.5 -82t76.5 -126.5t28 -175q0 -118 -43.5 -209.5t-119 -146.5t-169 -83t-201.5 -28h-164v-229h-352zM479 508h148q102 0 153 48.5t51 139.5q0 87 -51 125.5t-153 38.5h-148v-352z" />
<glyph unicode="&#xdf;" d="M809 -25q-79 0 -142 17t-139 53l115 238q81 -50 154 -50q23 0 39 16.5t16 45.5q0 25 -15.5 47.5t-40.5 42t-55.5 40.5t-60.5 47.5t-55 57.5t-40.5 76.5t-15.5 98.5q0 52 16 101.5t34.5 82t34.5 81t16 99.5q0 45 -23 76t-59 31q-133 0 -133 -197v-979h-353v995 q0 97 29.5 178.5t87.5 144t152.5 97.5t216.5 35q102 0 182 -30.5t128 -82.5t72.5 -114.5t24.5 -132.5q0 -65 -16 -121.5t-35 -87.5t-35 -66.5t-16 -64.5q0 -22 15.5 -43t40.5 -40t55 -40.5t60.5 -49.5t55.5 -62t40.5 -83.5t15.5 -107.5q0 -152 -95 -250.5t-272 -98.5z" />
<glyph unicode="&#xe0;" d="M442 -25q-153 0 -242 91.5t-89 224.5q0 175 151 265t496 108q-17 106 -197 106q-109 0 -295 -86l-123 229q247 136 488 136q227 0 353 -118t126 -362v-569h-287l-24 106h-8q-177 -131 -349 -131zM557 246q96 0 201 78v131q-119 -4 -191 -24t-96.5 -47t-24.5 -65 q0 -73 111 -73zM655 1143l-389 323l238 234l323 -385z" />
<glyph unicode="&#xe1;" d="M442 -25q-153 0 -242 91.5t-89 224.5q0 175 151 265t496 108q-17 106 -197 106q-109 0 -295 -86l-123 229q247 136 488 136q227 0 353 -118t126 -362v-569h-287l-24 106h-8q-177 -131 -349 -131zM557 246q96 0 201 78v131q-119 -4 -191 -24t-96.5 -47t-24.5 -65 q0 -73 111 -73zM655 1143l-172 172l324 385l237 -234z" />
<glyph unicode="&#xe2;" d="M442 -25q-153 0 -242 91.5t-89 224.5q0 175 151 265t496 108q-17 106 -197 106q-109 0 -295 -86l-123 229q247 136 488 136q227 0 353 -118t126 -362v-569h-287l-24 106h-8q-177 -131 -349 -131zM557 246q96 0 201 78v131q-119 -4 -191 -24t-96.5 -47t-24.5 -65 q0 -73 111 -73zM389 1143l-131 123l217 262h361l217 -262l-131 -123l-263 172h-8z" />
<glyph unicode="&#xe3;" d="M442 -25q-153 0 -242 91.5t-89 224.5q0 175 151 265t496 108q-17 106 -197 106q-109 0 -295 -86l-123 229q247 136 488 136q227 0 353 -118t126 -362v-569h-287l-24 106h-8q-177 -131 -349 -131zM557 246q96 0 201 78v131q-119 -4 -191 -24t-96.5 -47t-24.5 -65 q0 -73 111 -73zM786 1171q-42 0 -84 18t-69.5 39.5t-55.5 39.5t-45 18q-26 0 -40.5 -20.5t-20.5 -73.5l-217 12q6 324 270 324q53 0 105 -29t90.5 -57.5t58.5 -28.5q26 0 41 20.5t21 73.5l217 -12q-6 -324 -271 -324z" />
<glyph unicode="&#xe4;" d="M442 -25q-153 0 -242 91.5t-89 224.5q0 175 151 265t496 108q-17 106 -197 106q-109 0 -295 -86l-123 229q247 136 488 136q227 0 353 -118t126 -362v-569h-287l-24 106h-8q-177 -131 -349 -131zM557 246q96 0 201 78v131q-119 -4 -191 -24t-96.5 -47t-24.5 -65 q0 -73 111 -73zM418 1155q-81 0 -133 52.5t-52 131.5t52 132t133 53t132.5 -53t51.5 -132t-51.5 -131.5t-132.5 -52.5zM893 1155q-81 0 -132.5 52.5t-51.5 131.5t51.5 132t132.5 53t132.5 -53t51.5 -132t-51.5 -131.5t-132.5 -52.5z" />
<glyph unicode="&#xe5;" d="M442 -25q-153 0 -242 91.5t-89 224.5q0 175 151 265t496 108q-17 106 -197 106q-109 0 -295 -86l-123 229q247 136 488 136q227 0 353 -118t126 -362v-569h-287l-24 106h-8q-177 -131 -349 -131zM557 246q96 0 201 78v131q-119 -4 -191 -24t-96.5 -47t-24.5 -65 q0 -73 111 -73zM655 1163q-139 0 -212.5 61.5t-73.5 155.5t73.5 155.5t212.5 61.5t213 -61.5t74 -155.5t-74 -155.5t-213 -61.5zM655 1290q33 0 55.5 25.5t22.5 64.5t-22.5 64.5t-55.5 25.5t-55 -25.5t-22 -64.5t22 -64.5t55 -25.5z" />
<glyph unicode="&#xe6;" d="M307 -25q-122 0 -198 84.5t-76 214.5q0 160 110.5 252t333.5 125q-8 68 -35 93.5t-69 25.5q-49 0 -91 -15t-102 -50l-123 229q191 115 340 115q76 0 133 -30t105 -101q55 71 115.5 101t134.5 30q103 0 178 -69.5t111 -182t36 -252.5q0 -81 -14 -139h-446q19 -78 64 -117 t104 -39q73 0 143 49l119 -225q-58 -47 -135 -73t-140 -26q-194 0 -313 142q-137 -142 -285 -142zM418 246q41 0 84 39q-23 81 -23 153v8q-71 -14 -103 -48.5t-32 -78.5q0 -35 21 -54t53 -19zM852 782q-36 0 -66 -40.5t-43 -123.5h195q-4 90 -24 127t-62 37z" />
<glyph unicode="&#xe7;" d="M475 -500l-24 135q117 6 160.5 24.5t43.5 61.5q0 31 -33 51t-122 31l90 181q-208 32 -335.5 170.5t-127.5 357.5q0 100 32 186.5t88 150t131.5 109t164.5 68.5t184 23q118 0 219.5 -36.5t167.5 -99.5l-160 -217q-104 70 -206 70q-117 0 -189 -69t-72 -185 q0 -115 69.5 -184.5t178.5 -69.5q112 0 252 86l139 -221q-138 -113 -333 -141l-48 -105q82 -19 121 -56t39 -100q0 -208 -430 -221z" />
<glyph unicode="&#xe8;" d="M676 -25q-163 0 -292 62.5t-205.5 185.5t-76.5 289q0 122 45.5 225t120.5 170t171.5 104.5t199.5 37.5q118 0 212 -39t153.5 -106.5t90.5 -157t31 -193.5q0 -59 -14 -147h-657q23 -85 89.5 -124.5t180.5 -39.5q112 0 246 61l114 -209q-90 -57 -200 -88t-209 -31zM651 782 q-151 0 -194 -147h358q-21 147 -164 147zM635 1143l-389 323l237 234l324 -385z" />
<glyph unicode="&#xe9;" d="M676 -25q-163 0 -292 62.5t-205.5 185.5t-76.5 289q0 122 45.5 225t120.5 170t171.5 104.5t199.5 37.5q118 0 212 -39t153.5 -106.5t90.5 -157t31 -193.5q0 -59 -14 -147h-657q23 -85 89.5 -124.5t180.5 -39.5q112 0 246 61l114 -209q-90 -57 -200 -88t-209 -31zM651 782 q-151 0 -194 -147h358q-21 147 -164 147zM635 1143l-172 172l323 385l238 -234z" />
<glyph unicode="&#xea;" d="M676 -25q-163 0 -292 62.5t-205.5 185.5t-76.5 289q0 122 45.5 225t120.5 170t171.5 104.5t199.5 37.5q118 0 212 -39t153.5 -106.5t90.5 -157t31 -193.5q0 -59 -14 -147h-657q23 -85 89.5 -124.5t180.5 -39.5q112 0 246 61l114 -209q-90 -57 -200 -88t-209 -31zM651 782 q-151 0 -194 -147h358q-21 147 -164 147zM369 1143l-131 123l217 262h360l217 -262l-131 -123l-262 172h-8z" />
<glyph unicode="&#xeb;" d="M676 -25q-163 0 -292 62.5t-205.5 185.5t-76.5 289q0 122 45.5 225t120.5 170t171.5 104.5t199.5 37.5q118 0 212 -39t153.5 -106.5t90.5 -157t31 -193.5q0 -59 -14 -147h-657q23 -85 89.5 -124.5t180.5 -39.5q112 0 246 61l114 -209q-90 -57 -200 -88t-209 -31zM651 782 q-151 0 -194 -147h358q-21 147 -164 147zM397 1155q-81 0 -132.5 52.5t-51.5 131.5t51.5 132t132.5 53t133 -53t52 -132t-52 -131.5t-133 -52.5zM872 1155q-81 0 -132.5 52.5t-51.5 131.5t51.5 132t132.5 53t133 -53t52 -132t-52 -131.5t-133 -52.5z" />
<glyph unicode="&#xec;" d="M541 0v750h-389v274h741v-1024h-352zM705 1143l-390 323l238 234l324 -385z" />
<glyph unicode="&#xed;" d="M541 0v750h-389v274h741v-1024h-352zM705 1143l-173 172l324 385l238 -234z" />
<glyph unicode="&#xee;" d="M541 0v750h-389v274h741v-1024h-352zM438 1143l-131 123l217 262h361l217 -262l-131 -123l-262 172h-9z" />
<glyph unicode="&#xef;" d="M541 0v750h-389v274h741v-1024h-352zM467 1155q-81 0 -132.5 52.5t-51.5 131.5t51.5 132t132.5 53t132.5 -53t51.5 -132t-51.5 -131.5t-132.5 -52.5zM942 1155q-81 0 -132.5 52.5t-51.5 131.5t51.5 132t132.5 53t132.5 -53t51.5 -132t-51.5 -131.5t-132.5 -52.5z" />
<glyph unicode="&#xf0;" d="M602 -25q-142 0 -259 60t-187 174t-70 262q0 108 38 198.5t101 148t142.5 89t164.5 31.5q148 0 230 -88q-55 145 -178 256l-305 -154l-91 152l234 117q-80 48 -170 90l151 213q170 -78 295 -164l281 141l90 -153l-219 -111q289 -276 289 -684q0 -255 -144 -416.5 t-393 -161.5zM614 258q89 0 143 68t54 206q0 42 -2 60q-82 88 -201 88q-202 0 -202 -209q0 -103 58.5 -158t149.5 -55z" />
<glyph unicode="&#xf1;" d="M131 0v1024h287l24 -123h9q156 148 342 148q165 0 245 -110t80 -308v-631h-352v586q0 88 -26.5 126t-92.5 38q-47 0 -84 -19t-80 -59v-672h-352zM774 1171q-42 0 -84 18t-69.5 39.5t-55.5 39.5t-45 18q-26 0 -40.5 -20.5t-20.5 -73.5l-217 12q6 324 270 324q53 0 105 -29 t90.5 -57.5t58.5 -28.5q26 0 40.5 20.5t20.5 73.5l217 -12q-6 -324 -270 -324z" />
<glyph unicode="&#xf2;" d="M614 -25q-102 0 -196.5 37t-168.5 103.5t-118.5 170t-44.5 226.5t44.5 226.5t118.5 170t168.5 103.5t196.5 37t196.5 -37t169 -103.5t119 -170t44.5 -226.5t-44.5 -226.5t-119 -170t-169 -103.5t-196.5 -37zM614 258q168 0 168 254t-168 254t-168 -254t168 -254z M614 1143l-389 323l238 234l323 -385z" />
<glyph unicode="&#xf3;" d="M614 -25q-102 0 -196.5 37t-168.5 103.5t-118.5 170t-44.5 226.5t44.5 226.5t118.5 170t168.5 103.5t196.5 37t196.5 -37t169 -103.5t119 -170t44.5 -226.5t-44.5 -226.5t-119 -170t-169 -103.5t-196.5 -37zM614 258q168 0 168 254t-168 254t-168 -254t168 -254z M614 1143l-172 172l324 385l238 -234z" />
<glyph unicode="&#xf4;" d="M614 -25q-102 0 -196.5 37t-168.5 103.5t-118.5 170t-44.5 226.5t44.5 226.5t118.5 170t168.5 103.5t196.5 37t196.5 -37t169 -103.5t119 -170t44.5 -226.5t-44.5 -226.5t-119 -170t-169 -103.5t-196.5 -37zM614 258q168 0 168 254t-168 254t-168 -254t168 -254z M348 1143l-131 123l217 262h361l217 -262l-131 -123l-263 172h-8z" />
<glyph unicode="&#xf5;" d="M614 -25q-102 0 -196.5 37t-168.5 103.5t-118.5 170t-44.5 226.5t44.5 226.5t118.5 170t168.5 103.5t196.5 37t196.5 -37t169 -103.5t119 -170t44.5 -226.5t-44.5 -226.5t-119 -170t-169 -103.5t-196.5 -37zM614 258q168 0 168 254t-168 254t-168 -254t168 -254z M745 1171q-42 0 -84 18t-69 39.5t-55 39.5t-45 18q-26 0 -41 -20.5t-21 -73.5l-217 12q6 324 270 324q53 0 105 -29t90.5 -57.5t58.5 -28.5q26 0 41 20.5t21 73.5l217 -12q-6 -324 -271 -324z" />
<glyph unicode="&#xf6;" d="M614 -25q-102 0 -196.5 37t-168.5 103.5t-118.5 170t-44.5 226.5t44.5 226.5t118.5 170t168.5 103.5t196.5 37t196.5 -37t169 -103.5t119 -170t44.5 -226.5t-44.5 -226.5t-119 -170t-169 -103.5t-196.5 -37zM614 258q168 0 168 254t-168 254t-168 -254t168 -254z M377 1155q-81 0 -132.5 52.5t-51.5 131.5t51.5 132t132.5 53t132.5 -53t51.5 -132t-51.5 -131.5t-132.5 -52.5zM852 1155q-81 0 -132.5 52.5t-51.5 131.5t51.5 132t132.5 53t132.5 -53t51.5 -132t-51.5 -131.5t-132.5 -52.5z" />
<glyph unicode="&#xf7;" d="M614 868q-80 0 -134 50t-54 126t54 126.5t134 50.5t134.5 -50.5t54.5 -126.5t-54.5 -126t-134.5 -50zM614 131q-80 0 -134 50t-54 126t54 126t134 50t134.5 -50t54.5 -126t-54.5 -126t-134.5 -50zM131 553v246h967v-246h-967z" />
<glyph unicode="&#xf8;" d="M614 -25q-148 0 -278 76l-86 -104l-127 98l90 109q-127 147 -127 358q0 123 44.5 226.5t118.5 170t168.5 103.5t196.5 37q150 0 277 -74l88 106l127 -98l-92 -111q129 -145 129 -360q0 -123 -44.5 -226.5t-119 -170t-169 -103.5t-196.5 -37zM446 512q0 -20 5 -70l254 308 q-39 28 -91 28q-86 0 -127 -71.5t-41 -194.5zM614 246q86 0 127 71.5t41 194.5q0 28 -4 74l-256 -310q38 -30 92 -30z" />
<glyph unicode="&#xf9;" d="M438 -25q-166 0 -244.5 109.5t-78.5 308.5v631h352v-586q0 -89 25 -126.5t92 -37.5q47 0 81 19t72 72v659h353v-1024h-287l-25 135h-8q-140 -160 -332 -160zM606 1143l-389 323l238 234l323 -385z" />
<glyph unicode="&#xfa;" d="M438 -25q-166 0 -244.5 109.5t-78.5 308.5v631h352v-586q0 -89 25 -126.5t92 -37.5q47 0 81 19t72 72v659h353v-1024h-287l-25 135h-8q-140 -160 -332 -160zM606 1143l-172 172l324 385l237 -234z" />
<glyph unicode="&#xfb;" d="M438 -25q-166 0 -244.5 109.5t-78.5 308.5v631h352v-586q0 -89 25 -126.5t92 -37.5q47 0 81 19t72 72v659h353v-1024h-287l-25 135h-8q-140 -160 -332 -160zM340 1143l-131 123l217 262h360l218 -262l-132 -123l-262 172h-8z" />
<glyph unicode="&#xfc;" d="M438 -25q-166 0 -244.5 109.5t-78.5 308.5v631h352v-586q0 -89 25 -126.5t92 -37.5q47 0 81 19t72 72v659h353v-1024h-287l-25 135h-8q-140 -160 -332 -160zM369 1155q-81 0 -133 52.5t-52 131.5t52 132t133 53t132.5 -53t51.5 -132t-51.5 -131.5t-132.5 -52.5zM844 1155 q-81 0 -133 52.5t-52 131.5t52 132t133 53t132.5 -53t51.5 -132t-51.5 -131.5t-132.5 -52.5z" />
<glyph unicode="&#xfd;" d="M301 -385q-86 0 -164 20l62 267q44 -13 73 -13q145 0 191 103l16 45l-430 987h348l144 -393q39 -109 92 -312h8q26 107 88 312l123 393h332l-385 -1008q-43 -108 -86.5 -180t-102.5 -123.5t-134 -74.5t-175 -23zM635 1143l-172 172l323 385l238 -234z" />
<glyph unicode="&#xfe;" d="M131 -360v1785h352v-331l-12 -148h8q109 103 258 103q184 0 295 -142.5t111 -378.5q0 -128 -37 -234.5t-98.5 -175t-139 -106t-159.5 -37.5q-134 0 -230 103h-8l12 -156v-282h-352zM623 262q69 0 114 62.5t45 199.5q0 125 -37 181.5t-114 56.5q-80 0 -148 -74v-377 q54 -49 140 -49z" />
<glyph unicode="&#xff;" d="M301 -385q-86 0 -164 20l62 267q44 -13 73 -13q145 0 191 103l16 45l-430 987h348l144 -393q39 -109 92 -312h8q26 107 88 312l123 393h332l-385 -1008q-43 -108 -86.5 -180t-102.5 -123.5t-134 -74.5t-175 -23zM397 1155q-81 0 -132.5 52.5t-51.5 131.5t51.5 132 t132.5 53t133 -53t52 -132t-52 -131.5t-133 -52.5zM872 1155q-81 0 -132.5 52.5t-51.5 131.5t51.5 132t132.5 53t133 -53t52 -132t-52 -131.5t-133 -52.5z" />
<glyph unicode="&#x152;" d="M582 0q-119 0 -217.5 39.5t-174.5 119t-118.5 210.5t-42.5 303t44 301t123.5 206t181 114.5t224.5 37.5h598v-295h-299v-209h225v-295h-225v-237h320v-295h-639zM561 283h29v766h-29q-39 0 -68 -15.5t-53.5 -54.5t-37.5 -116t-13 -191t13 -193t37.5 -120.5t53.5 -58.5 t68 -17z" />
<glyph unicode="&#x153;" d="M434 258q39 0 59.5 67.5t20.5 186.5t-20.5 186.5t-59.5 67.5q-94 0 -94 -254t94 -254zM406 -25q-163 0 -272 145t-109 392q0 124 31 226.5t84.5 170t124 104t149.5 36.5q159 0 235 -162q37 82 103 122t133 40q103 0 178 -69.5t111 -182t36 -252.5q0 -81 -14 -139h-446 q19 -78 64 -117t104 -39q73 0 143 49l119 -225q-58 -47 -135 -73t-140 -26q-47 0 -92 12.5t-91.5 48t-72.5 89.5q-39 -82 -98.5 -116t-144.5 -34zM852 782q-36 0 -66 -40.5t-43 -123.5h195q-4 90 -24 127t-62 37z" />
<glyph unicode="&#x178;" d="M438 0v440l-422 891h377l111 -291q19 -55 55 -155t53 -148h9q21 60 59.5 162.5t52.5 140.5l111 291h368l-421 -891v-440h-353zM373 1421q-73 0 -120.5 48.5t-47.5 119.5q0 72 47.5 120t120.5 48t120.5 -48t47.5 -120q0 -71 -47.5 -119.5t-120.5 -48.5zM856 1421 q-73 0 -120.5 48.5t-47.5 119.5q0 72 47.5 120t120.5 48t120.5 -48t47.5 -120q0 -71 -47.5 -119.5t-120.5 -48.5z" />
<glyph unicode="&#x2c6;" d="M348 1143l-131 123l217 262h361l217 -262l-131 -123l-263 172h-8z" />
<glyph unicode="&#x2dc;" d="M745 1171q-42 0 -84 18t-69 39.5t-55 39.5t-45 18q-26 0 -41 -20.5t-21 -73.5l-217 12q6 324 270 324q53 0 105 -29t90.5 -57.5t58.5 -28.5q26 0 41 20.5t21 73.5l217 -12q-6 -324 -271 -324z" />
<glyph unicode="&#x2000;" horiz-adv-x="925" />
<glyph unicode="&#x2001;" horiz-adv-x="1851" />
<glyph unicode="&#x2002;" horiz-adv-x="925" />
<glyph unicode="&#x2003;" horiz-adv-x="1851" />
<glyph unicode="&#x2004;" horiz-adv-x="617" />
<glyph unicode="&#x2005;" horiz-adv-x="462" />
<glyph unicode="&#x2006;" horiz-adv-x="308" />
<glyph unicode="&#x2007;" horiz-adv-x="308" />
<glyph unicode="&#x2008;" horiz-adv-x="231" />
<glyph unicode="&#x2009;" horiz-adv-x="370" />
<glyph unicode="&#x200a;" horiz-adv-x="102" />
<glyph unicode="&#x2010;" d="M131 553v246h967v-246h-967z" />
<glyph unicode="&#x2011;" d="M131 553v246h967v-246h-967z" />
<glyph unicode="&#x2012;" d="M131 553v246h967v-246h-967z" />
<glyph unicode="&#x2013;" d="M164 393v258h901v-258h-901z" />
<glyph unicode="&#x2014;" d="M0 393v258h1229v-258h-1229z" />
<glyph unicode="&#x2018;" d="M618 547q-127 0 -194.5 94t-67.5 264q0 351 383 520l88 -182q-113 -46 -170.5 -112t-64.5 -160q24 4 37 4q90 0 146 -55.5t56 -147.5q0 -102 -60 -163.5t-153 -61.5z" />
<glyph unicode="&#x2019;" d="M489 547l-88 182q113 46 171 112.5t65 159.5q-24 -4 -37 -4q-90 0 -146.5 55.5t-56.5 147.5q0 102 60 163.5t153 61.5q127 0 194.5 -94t67.5 -264q0 -351 -383 -520z" />
<glyph unicode="&#x201a;" d="M489 -477l-88 182q113 46 171 112.5t65 159.5q-24 -4 -37 -4q-90 0 -146.5 55.5t-56.5 147.5q0 102 60 163.5t153 61.5q127 0 194.5 -94t67.5 -264q0 -351 -383 -520z" />
<glyph unicode="&#x201c;" d="M332 547q-127 0 -194.5 94t-67.5 264q0 351 383 520l88 -182q-113 -46 -171 -112.5t-65 -159.5q24 4 37 4q90 0 146.5 -55.5t56.5 -147.5q0 -102 -60 -163.5t-153 -61.5zM905 547q-127 0 -194.5 94t-67.5 264q0 351 383 520l88 -182q-113 -46 -170.5 -112t-64.5 -160 q24 4 36 4q90 0 146.5 -55.5t56.5 -147.5q0 -102 -60 -163.5t-153 -61.5z" />
<glyph unicode="&#x201d;" d="M203 547l-88 182q113 46 170.5 112t64.5 160q-24 -4 -37 -4q-90 0 -146 55.5t-56 147.5q0 102 60 163.5t153 61.5q127 0 194.5 -94t67.5 -264q0 -351 -383 -520zM776 547l-88 182q113 46 171 112.5t65 159.5q-24 -4 -37 -4q-90 0 -146.5 55.5t-56.5 147.5q0 102 60 163.5 t153 61.5q127 0 194.5 -94t67.5 -264q0 -351 -383 -520z" />
<glyph unicode="&#x201e;" d="M203 -477l-88 182q113 46 170.5 112t64.5 160q-24 -4 -37 -4q-90 0 -146 55.5t-56 147.5q0 102 60 163.5t153 61.5q127 0 194.5 -94t67.5 -264q0 -351 -383 -520zM776 -477l-88 182q113 46 171 112.5t65 159.5q-24 -4 -37 -4q-90 0 -146.5 55.5t-56.5 147.5 q0 102 60 163.5t153 61.5q127 0 194.5 -94t67.5 -264q0 -351 -383 -520z" />
<glyph unicode="&#x2022;" d="M614 197q-150 0 -249 97.5t-99 242.5t99 242.5t249 97.5t249.5 -97.5t99.5 -242.5t-99.5 -242.5t-249.5 -97.5z" />
<glyph unicode="&#x2026;" d="M178 -25q-93 0 -149 60.5t-56 152.5q0 90 56 151.5t149 61.5t149 -61.5t56 -151.5q0 -92 -56 -152.5t-149 -60.5zM614 -25q-93 0 -148.5 60.5t-55.5 152.5q0 91 55.5 152t148.5 61t149 -61.5t56 -151.5q0 -92 -56 -152.5t-149 -60.5zM1051 -25q-93 0 -149 60.5t-56 152.5 q0 90 56 151.5t149 61.5t148.5 -61t55.5 -152q0 -92 -55.5 -152.5t-148.5 -60.5z" />
<glyph unicode="&#x202f;" horiz-adv-x="370" />
<glyph unicode="&#x2039;" d="M705 29l-365 311v352l365 312l147 -132l-262 -356l262 -356z" />
<glyph unicode="&#x203a;" d="M524 29l-147 131l262 356l-262 356l147 132l365 -312v-352z" />
<glyph unicode="&#x205f;" horiz-adv-x="462" />
<glyph unicode="&#x20ac;" d="M786 -25q-218 0 -372 118t-205 341h-127v160l106 8v37q0 39 2 57h-108v160l133 10q56 218 213.5 337.5t378.5 119.5q106 0 206.5 -41t178.5 -119l-193 -188q-106 78 -204 78q-168 0 -226 -185h480v-172h-508v-45q0 -31 2 -45h424v-172h-396q63 -188 236 -188 q117 0 209 98l192 -180q-177 -189 -422 -189z" />
<glyph unicode="&#x2122;" d="M115 737v443h-148v204h520v-204h-147v-443h-225zM549 737v647h237l62 -176l37 -139h8l37 139l61 176h238v-647h-197v164l25 246h-8l-95 -275h-131l-94 275h-8l24 -246v-164h-196z" />
<glyph unicode="&#x25fc;" horiz-adv-x="1024" d="M0 1024h1024v-1024h-1024v1024z" />
<glyph unicode="&#xfb01;" d="M115 0v750h-135v262l135 10v14q0 86 21.5 157.5t67 131t126 92.5t190.5 33q113 0 217 -37l-61 -258q-58 21 -103 21q-52 0 -79 -29t-27 -98v-25h172v-274h-172v-750h-352zM827 0v1024h353v-1024h-353zM1004 1163q-99 0 -162.5 56.5t-63.5 148.5t63.5 150.5t162.5 58.5 t162 -58.5t63 -150.5t-63 -148.5t-162 -56.5z" />
<glyph unicode="&#xfb02;" d="M123 0v750h-135v262l135 10v14q0 86 21.5 157.5t67 131t126 92.5t190.5 33q113 0 217 -37l-61 -258q-58 21 -102 21q-52 0 -79.5 -29t-27.5 -98v-25h172v-274h-172v-750h-352zM1114 -25q-169 0 -242 100.5t-73 284.5v1065h352v-1077q0 -48 17 -69t40 -21q21 0 37 4 l41 -258q-67 -29 -172 -29z" />
</font>
</defs>
</svg>
